<svg width="103" height="28" viewBox="0 0 103 28" fill="none" xmlns="http://www.w3.org/2000/svg">
<path d="M20.9525 6.37004C20.6657 6.37004 20.3854 6.45215 20.1469 6.60598C19.9085 6.75982 19.7226 6.97847 19.6129 7.23428C19.5031 7.4901 19.4744 7.77159 19.5304 8.04317C19.5863 8.31474 19.7244 8.5642 19.9272 8.75999C20.13 8.95578 20.3884 9.08912 20.6696 9.14314C20.9509 9.19716 21.2425 9.16944 21.5074 9.06347C21.7724 8.95751 21.9988 8.77807 22.1581 8.54784C22.3175 8.31761 22.4025 8.04693 22.4025 7.77004C22.4025 7.39874 22.2498 7.04264 21.9778 6.78009C21.7059 6.51754 21.3371 6.37004 20.9525 6.37004ZM26.5109 9.19337C26.4874 8.22539 26.2996 7.26768 25.955 6.35837C25.6478 5.58036 25.1696 4.87587 24.5534 4.29337C23.955 3.69537 23.2237 3.23658 22.4146 2.95171C21.4753 2.60889 20.4823 2.42345 19.4784 2.40337C18.1975 2.33337 17.7867 2.33337 14.5 2.33337C11.2134 2.33337 10.8025 2.33337 9.52169 2.40337C8.51775 2.42345 7.52473 2.60889 6.58544 2.95171C5.77788 3.23946 5.04715 3.69786 4.44669 4.29337C3.82733 4.87108 3.35215 5.57722 3.0571 6.35837C2.70205 7.26527 2.50998 8.22405 2.48919 9.19337C2.41669 10.43 2.41669 10.8267 2.41669 14C2.41669 17.1734 2.41669 17.57 2.48919 18.8067C2.50998 19.776 2.70205 20.7348 3.0571 21.6417C3.35215 22.4229 3.82733 23.129 4.44669 23.7067C5.04715 24.3022 5.77788 24.7606 6.58544 25.0484C7.52473 25.3912 8.51775 25.5766 9.52169 25.5967C10.8025 25.6667 11.2134 25.6667 14.5 25.6667C17.7867 25.6667 18.1975 25.6667 19.4784 25.5967C20.4823 25.5766 21.4753 25.3912 22.4146 25.0484C23.2237 24.7635 23.955 24.3047 24.5534 23.7067C25.1723 23.1264 25.6509 22.4213 25.955 21.6417C26.2996 20.7324 26.4874 19.7747 26.5109 18.8067C26.5109 17.57 26.5834 17.1734 26.5834 14C26.5834 10.8267 26.5834 10.43 26.5109 9.19337ZM24.3359 18.6667C24.3271 19.4073 24.1881 20.141 23.925 20.8367C23.7321 21.3444 23.4222 21.8032 23.0188 22.1784C22.6268 22.564 22.1527 22.8625 21.6292 23.0534C20.9087 23.3074 20.1487 23.4415 19.3817 23.45C18.1734 23.5084 17.7263 23.52 14.5484 23.52C11.3704 23.52 10.9234 23.52 9.71502 23.45C8.9186 23.4644 8.12557 23.346 7.37085 23.1C6.87034 22.8995 6.41791 22.6016 6.04169 22.225C5.64063 21.8502 5.33462 21.3911 5.14752 20.8834C4.85251 20.1777 4.68889 19.4273 4.66419 18.6667C4.66419 17.5 4.59169 17.0684 4.59169 14C4.59169 10.9317 4.59169 10.5 4.66419 9.33337C4.6696 8.57627 4.81275 7.82598 5.0871 7.11671C5.29983 6.62427 5.62634 6.18531 6.04169 5.83337C6.40879 5.43224 6.86249 5.11365 7.37085 4.90004C8.10739 4.64342 8.88368 4.5093 9.66669 4.50337C10.875 4.50337 11.3221 4.43337 14.5 4.43337C17.6779 4.43337 18.125 4.43337 19.3334 4.50337C20.1004 4.51187 20.8603 4.64599 21.5809 4.90004C22.13 5.0968 22.6228 5.4167 23.0188 5.83337C23.4147 6.19175 23.7241 6.6299 23.925 7.11671C24.1936 7.82713 24.3326 8.57712 24.3359 9.33337C24.3963 10.5 24.4084 10.9317 24.4084 14C24.4084 17.0684 24.3963 17.5 24.3359 18.6667ZM14.5 8.01504C13.2745 8.01735 12.0773 8.37032 11.0595 9.02936C10.0417 9.6884 9.24906 10.6239 8.78174 11.7178C8.31443 12.8116 8.19339 14.0146 8.43394 15.1748C8.67448 16.335 9.26581 17.4003 10.1332 18.2362C11.0006 19.072 12.1051 19.6409 13.3072 19.8709C14.5093 20.1009 15.7551 19.9817 16.887 19.5283C18.019 19.075 18.9864 18.3079 19.667 17.3239C20.3476 16.3399 20.7108 15.1833 20.7109 14C20.7125 13.2127 20.5528 12.4327 20.2411 11.7052C19.9294 10.9776 19.4718 10.3167 18.8946 9.76043C18.3174 9.20421 17.632 8.76367 16.8778 8.46413C16.1236 8.16458 15.3155 8.01196 14.5 8.01504ZM14.5 17.885C13.7042 17.885 12.9262 17.6572 12.2645 17.2303C11.6028 16.8034 11.0871 16.1967 10.7826 15.4868C10.478 14.7769 10.3983 13.9957 10.5536 13.2421C10.7088 12.4885 11.0921 11.7963 11.6548 11.2529C12.2175 10.7096 12.9345 10.3396 13.715 10.1897C14.4956 10.0398 15.3046 10.1167 16.0398 10.4108C16.7751 10.7048 17.4035 11.2028 17.8456 11.8417C18.2878 12.4805 18.5238 13.2317 18.5238 14C18.5238 14.5102 18.4197 15.0154 18.2175 15.4868C18.0153 15.9581 17.7189 16.3864 17.3452 16.7472C16.9716 17.1079 16.528 17.3941 16.0398 17.5893C15.5517 17.7846 15.0284 17.885 14.5 17.885Z" fill="black"/>
<path d="M53.6509 11.0367C53.5906 11.0367 53.5308 11.0482 53.4751 11.0705C53.4194 11.0927 53.3688 11.1254 53.3262 11.1666C53.2835 11.2077 53.2497 11.2566 53.2266 11.3104C53.2036 11.3642 53.1917 11.4218 53.1917 11.48V13.4284L51.5 11.2584C51.4579 11.1923 51.3993 11.1375 51.3297 11.0988C51.2601 11.0601 51.1816 11.0387 51.1013 11.0367C51.041 11.0367 50.9813 11.0482 50.9256 11.0705C50.8698 11.0927 50.8192 11.1254 50.7766 11.1666C50.734 11.2077 50.7001 11.2566 50.6771 11.3104C50.654 11.3642 50.6421 11.4218 50.6421 11.48V14.7934C50.6421 14.8516 50.654 14.9092 50.6771 14.963C50.7001 15.0168 50.734 15.0657 50.7766 15.1069C50.8192 15.148 50.8698 15.1807 50.9256 15.203C50.9813 15.2252 51.041 15.2367 51.1013 15.2367C51.1616 15.2367 51.2213 15.2252 51.277 15.203C51.3327 15.1807 51.3833 15.148 51.4259 15.1069C51.4686 15.0657 51.5024 15.0168 51.5255 14.963C51.5486 14.9092 51.5604 14.8516 51.5604 14.7934V12.8334L53.24 15.0617C53.2828 15.1239 53.347 15.1693 53.4213 15.19C53.477 15.2021 53.5347 15.2021 53.5904 15.19C53.6434 15.2086 53.6999 15.2162 53.7562 15.2122C53.8124 15.2081 53.8671 15.1926 53.9167 15.1667L54.0375 15.085C54.1223 15.0006 54.17 14.8877 54.1704 14.77V11.48C54.171 11.4166 54.1575 11.3537 54.1307 11.2957C54.1039 11.2378 54.0646 11.186 54.0153 11.144C53.9661 11.102 53.9081 11.0706 53.8452 11.0521C53.7823 11.0336 53.716 11.0284 53.6509 11.0367ZM48.1167 14.315H46.8359V11.48C46.8359 11.3625 46.7875 11.2497 46.7014 11.1666C46.6153 11.0834 46.4985 11.0367 46.3767 11.0367C46.2549 11.0367 46.1381 11.0834 46.052 11.1666C45.9659 11.2497 45.9175 11.3625 45.9175 11.48V14.7934C45.9175 14.911 45.9659 15.0237 46.052 15.1069C46.1381 15.19 46.2549 15.2367 46.3767 15.2367H48.1167C48.2396 15.2367 48.3577 15.1904 48.4457 15.1076C48.5337 15.0248 48.5848 14.912 48.5879 14.7934C48.5912 14.7317 48.5815 14.67 48.5592 14.6121C48.537 14.5542 48.5028 14.5012 48.4588 14.4564C48.4147 14.4117 48.3616 14.3761 48.3028 14.3518C48.244 14.3275 48.1807 14.315 48.1167 14.315ZM49.4579 11.0367C49.335 11.0367 49.2169 11.083 49.1289 11.1658C49.0409 11.2486 48.9898 11.3614 48.9867 11.48V14.7934C48.9898 14.912 49.0409 15.0248 49.1289 15.1076C49.2169 15.1904 49.335 15.2367 49.4579 15.2367C49.5797 15.2367 49.6965 15.19 49.7826 15.1069C49.8687 15.0237 49.9171 14.911 49.9171 14.7934V11.48C49.9171 11.3625 49.8687 11.2497 49.7826 11.1666C49.6965 11.0834 49.5797 11.0367 49.4579 11.0367ZM58.6413 2.33337H44.3588C43.049 2.33645 41.7938 2.84017 40.8677 3.73437C39.9416 4.62856 39.4199 5.84046 39.4167 7.10504V20.895C39.4199 22.1596 39.9416 23.3715 40.8677 24.2657C41.7938 25.1599 43.049 25.6636 44.3588 25.6667H58.6413C59.951 25.6636 61.2062 25.1599 62.1323 24.2657C63.0585 23.3715 63.5802 22.1596 63.5834 20.895V7.10504C63.5802 5.84046 63.0585 4.62856 62.1323 3.73437C61.2062 2.84017 59.951 2.33645 58.6413 2.33337ZM59.0159 16.66C58.9683 16.7296 58.9158 16.7958 58.8588 16.8584C58.5706 17.2007 58.2467 17.5135 57.8921 17.7917C55.4754 19.9734 51.4154 22.5867 50.8717 22.1784C50.3279 21.77 51.645 20.125 50.2313 19.845C50.131 19.8572 50.0295 19.8572 49.9292 19.845C45.7725 19.285 42.6792 16.4734 42.6792 13.1017C42.6792 9.31004 46.6546 6.24171 51.5484 6.24171C56.4421 6.24171 60.4175 9.31004 60.4175 13.1017C60.3756 14.4058 59.8821 15.6587 59.0159 16.66ZM56.9496 11.0484H55.125C55.0032 11.0484 54.8864 11.0951 54.8003 11.1782C54.7142 11.2614 54.6659 11.3741 54.6659 11.4917V14.805C54.6659 14.8633 54.6777 14.9209 54.7008 14.9747C54.7239 15.0285 54.7577 15.0774 54.8003 15.1185C54.843 15.1597 54.8936 15.1923 54.9493 15.2146C55.005 15.2369 55.0647 15.2484 55.125 15.2484H56.9134C56.9737 15.2484 57.0334 15.2369 57.0891 15.2146C57.1448 15.1923 57.1954 15.1597 57.238 15.1185C57.2807 15.0774 57.3145 15.0285 57.3376 14.9747C57.3606 14.9209 57.3725 14.8633 57.3725 14.805C57.3725 14.6875 57.3241 14.5747 57.238 14.4916C57.1519 14.4084 57.0351 14.3617 56.9134 14.3617H55.6688V13.6617H56.9496C57.0725 13.6587 57.1893 13.6094 57.275 13.5244C57.3608 13.4394 57.4088 13.3254 57.4088 13.2067C57.4088 13.0891 57.3604 12.9764 57.2743 12.8932C57.1882 12.8101 57.0714 12.7634 56.9496 12.7634H55.6688V12.0517H56.9496C57.0714 12.0517 57.1882 12.005 57.2743 11.9219C57.3604 11.8387 57.4088 11.726 57.4088 11.6084C57.4278 11.5413 57.4302 11.4709 57.4158 11.4028C57.4014 11.3347 57.3706 11.2708 57.3259 11.2163C57.2812 11.1617 57.2238 11.1181 57.1585 11.089C57.0931 11.0598 57.0216 11.0459 56.9496 11.0484Z" fill="black"/>
<g clip-path="url(#clip0_584_237)">
<path d="M95.0594 0H81.9406C77.5551 0 74 3.42479 74 7.64948V20.2874C74 24.5121 77.5551 27.9369 81.9406 27.9369H95.0594C99.4449 27.9369 103 24.5121 103 20.2874V7.64948C103 3.42479 99.4449 0 95.0594 0Z" fill="url(#paint0_radial_584_237)"/>
<path d="M87.3061 14.5097C86.9195 14.5003 86.5327 14.5215 86.1497 14.5729C85.5939 14.6933 85.1066 15.013 84.7866 15.467C84.4666 15.9211 84.3379 16.4754 84.4267 17.0175C84.5104 17.5651 84.807 18.0617 85.2564 18.4067C85.7058 18.7517 86.2744 18.9193 86.8473 18.8757C87.4117 18.8382 87.9405 18.5965 88.3277 18.1992C88.715 17.8019 88.9321 17.2783 88.9354 16.7333C88.9354 13.4137 88.9354 10.0986 88.9354 6.77905V6.42725H91.6182C91.7868 8.62377 93.1258 9.74232 95.3169 10.0355V12.5658C94.0049 12.5501 92.7292 12.1488 91.6603 11.4156C91.6603 11.5329 91.6603 11.6186 91.6603 11.7043C91.6603 13.3325 91.6603 14.9562 91.6603 16.58C91.6956 17.5868 91.3956 18.5782 90.8043 19.4092C90.2129 20.2401 89.3612 20.8671 88.3736 21.1985C87.4754 21.5527 86.4852 21.6292 85.5399 21.4175C84.5946 21.2058 83.741 20.7163 83.0971 20.0168C82.4067 19.3734 81.9384 18.541 81.7558 17.6325C81.5732 16.724 81.6852 15.7833 82.0764 14.9382C82.4731 13.9635 83.1934 13.1426 84.1249 12.6034C85.0564 12.0642 86.1469 11.8369 87.2265 11.9569L87.3249 11.9794L87.3061 14.5097Z" fill="url(#paint1_linear_584_237)"/>
</g>
<defs>
<radialGradient id="paint0_radial_584_237" cx="0" cy="0" r="1" gradientUnits="userSpaceOnUse" gradientTransform="translate(90.3072 -12.5251) scale(25.5962 24.6579)">
<stop stop-color="#1F1F1F"/>
<stop offset="0.44" stop-color="#232222"/>
<stop offset="0.82" stop-color="#2D2B2B"/>
<stop offset="1" stop-color="#353132"/>
</radialGradient>
<linearGradient id="paint1_linear_584_237" x1="88.5" y1="21.5097" x2="88.5" y2="6.42725" gradientUnits="userSpaceOnUse">
<stop stop-color="#D1D3D4"/>
<stop offset="0.15" stop-color="#DEE0E1"/>
<stop offset="0.41" stop-color="#F1F1F2"/>
<stop offset="0.69" stop-color="#FBFCFC"/>
<stop offset="1" stop-color="white"/>
</linearGradient>
<clipPath id="clip0_584_237">
<rect width="29" height="28" fill="white" transform="translate(74)"/>
</clipPath>
</defs>
</svg>
